<?xml version="1.0" encoding="UTF-8"?>
<svg version="1.0" viewBox="0 0 838.96 202.7" xml:space="preserve" xmlns="http://www.w3.org/2000/svg">



<path transform="matrix(1.5252 0 0 1.5252 247.11 52.583)" d="m-51.52 98.425-86.199-1e-6a24.301 24.301 60 0 1-21.045-36.452l49.528-85.784a21.332 21.332 2.522e-7 0 1 36.948 1e-6l45.671 79.104a28.755 28.755 120 0 1-24.902 43.132z" fill="#f00" fill-rule="evenodd" style="paint-order:stroke markers fill"/><path transform="matrix(1.0356 0 0 1.0249 202.09 76.206)" d="m-38.751 98.425-112.69-1e-6a16.381 16.381 60 0 1-14.186-24.571l64.284-111.34a12.213 12.213 2.522e-7 0 1 21.154 0l59.952 103.84a21.383 21.383 120 0 1-18.518 32.074z" fill="#fff" fill-rule="evenodd" style="paint-order:stroke markers fill"/><path transform="scale(-1,1)" d="m-108.38 58.523h0.4601c6.4744 0 11.687 5.2122 11.687 11.687v51.363c0 6.4744-5.2122 11.687-11.687 11.687h-0.4601c-6.4744 0-11.687-5.2122-11.687-11.687v-51.363c0-6.4744 5.2122-11.687 11.687-11.687z" fill="#f00" fill-rule="evenodd" stroke-width="0" style="paint-order:stroke markers fill"/><path d="m120.07 152.53a11.917 11.917 0 0 1-11.917 11.917 11.917 11.917 0 0 1-11.917-11.917 11.917 11.917 0 0 1 11.917-11.917 11.917 11.917 0 0 1 11.917 11.917z" fill="#f00" fill-rule="evenodd" stroke-width="0" style="paint-order:stroke markers fill"/><path d="m147.66 14.703 68.834 119.89c10.185 17.802 7.851 40.169-5.7871 55.457h540.57c48.572 0 87.676-39.104 87.676-87.676s-39.104-87.676-87.676-87.676z" fill="#f00" fill-rule="evenodd" style="paint-order:stroke markers fill"/><path d="m329.58 133.84h-14.272l-5.6736-14.76h-25.974l-5.3633 14.76h-13.918l25.31-64.981h13.874zm-24.157-25.709-8.9536-24.113-8.7763 24.113zm39.006 25.709v-53.988h-19.282v-10.993h51.638v10.993h-19.237v53.988zm55.451 0v-53.988h-19.282v-10.993h51.638v10.993h-19.237v53.988zm40.823 0v-64.981h48.181v10.993h-35.061v14.406h32.623v10.948h-32.623v17.685h36.302v10.948zm60.681 0v-64.981h12.766l26.595 43.394v-43.394h12.189v64.981h-13.165l-26.196-42.375v42.375zm80.051 0v-53.988h-19.282v-10.993h51.638v10.993h-19.237v53.988zm40.425 0v-64.981h13.12v64.981zm22.96-32.091c0-6.6192 0.98991-12.175 2.9697-16.666 1.4775-3.3096 3.4869-6.2794 6.0282-8.9093 2.5709-2.6299 5.3781-4.5802 8.4218-5.8509 4.0484-1.7139 8.7174-2.5709 14.007-2.5709 9.574 0 17.227 2.9698 22.96 8.9093 5.7622 5.9396 8.6433 14.199 8.6433 24.778 0 10.49-2.8516 18.705-8.5547 24.645-5.7031 5.91-13.327 8.865-22.872 8.865-9.6628 0-17.346-2.9402-23.049-8.8206-5.7032-5.91-8.5547-14.036-8.5547-24.379zm13.519-0.44325c0 7.3576 1.6991 12.943 5.0974 16.755 3.3983 3.7824 7.7125 5.6736 12.943 5.6736s9.5151-1.8764 12.854-5.6292c3.3687-3.7824 5.053-9.4412 5.053-16.976 0-7.4465-1.64-13.002-4.9201-16.666-3.2505-3.6642-7.5797-5.4963-12.988-5.4963-5.4079 0-9.7666 1.8617-13.076 5.585-3.3096 3.6937-4.9644 9.2786-4.9644 16.755zm59.883 32.535v-64.981h12.766l26.595 43.394v-43.394h12.189v64.981h-13.165l-26.196-42.375v42.375z" fill="#fff" fill-rule="evenodd" stroke-width="0" style="paint-order:stroke markers fill" aria-label="ATTENTION!"/></svg>
