<?xml version="1.0" encoding="UTF-8"?>
<svg version="1.0" viewBox="0 0 212.39 202.7" xml:space="preserve" xmlns="http://www.w3.org/2000/svg">



<path d="m168.53 202.7h-131.47a37.064 37.064 0 0 1-32.098-55.597l75.54-130.84a32.536 32.536 0 0 1 56.353 2e-6l69.657 120.65a43.857 43.857 0 0 1-37.981 65.785z" fill="#f00" fill-rule="evenodd" stroke-width="1.5252" style="paint-order:stroke markers fill"/><path d="m161.96 177.08h-116.7a16.964 16.789 0 0 1-14.691-25.183l66.573-114.11a12.648 12.517 0 0 1 21.907 0l62.086 106.43a22.144 21.915 0 0 1-19.177 32.873z" fill="#fff" fill-rule="evenodd" stroke-width="1.0302" style="paint-order:stroke markers fill"/><path d="m108.38 58.524h-0.4601c-6.4744 0-11.687 5.2122-11.687 11.687v51.363c0 6.4744 5.2122 11.687 11.687 11.687h0.4601c6.4744 0 11.687-5.2122 11.687-11.687v-51.363c0-6.4744-5.2122-11.687-11.687-11.687z" fill="#f00" fill-rule="evenodd" stroke-width="0" style="paint-order:stroke markers fill"/><path d="m120.07 152.53a11.917 11.917 0 0 1-11.917 11.917 11.917 11.917 0 0 1-11.917-11.917 11.917 11.917 0 0 1 11.917-11.917 11.917 11.917 0 0 1 11.917 11.917z" fill="#f00" fill-rule="evenodd" stroke-width="0" style="paint-order:stroke markers fill"/></svg>
